<mxfile host="app.diagrams.net" modified="2021-07-13T09:36:00.256Z" agent="5.0 (Macintosh; Intel Mac OS X 10_15_7) AppleWebKit/537.36 (KHTML, like Gecko) Chrome/86.0.4240.193 Safari/537.36" etag="AuEyuXpkRHF5MlU7eoqj" version="14.8.6" type="github">
  <diagram id="-kSweob6kp6dJJfgKZL-" name="Page-1">
    <mxGraphModel dx="946" dy="536" grid="1" gridSize="10" guides="1" tooltips="1" connect="1" arrows="1" fold="1" page="1" pageScale="1" pageWidth="827" pageHeight="1169" math="0" shadow="0">
      <root>
        <mxCell id="0" />
        <mxCell id="1" parent="0" />
        <mxCell id="_EfEo3dYzdyOm2x9ZF3H-1" value="" style="rounded=1;whiteSpace=wrap;html=1;fillColor=#ffe6cc;strokeColor=#d79b00;" vertex="1" parent="1">
          <mxGeometry x="65.5" y="180" width="354.5" height="300" as="geometry" />
        </mxCell>
        <mxCell id="_EfEo3dYzdyOm2x9ZF3H-3" value="" style="rounded=1;whiteSpace=wrap;html=1;fillColor=#f5f5f5;strokeColor=#666666;fontColor=#333333;" vertex="1" parent="1">
          <mxGeometry x="100" y="240" width="120" height="200" as="geometry" />
        </mxCell>
        <mxCell id="_EfEo3dYzdyOm2x9ZF3H-4" value="" style="rounded=1;whiteSpace=wrap;html=1;fillColor=#dae8fc;strokeColor=#6c8ebf;" vertex="1" parent="1">
          <mxGeometry x="255" y="240" width="130" height="200" as="geometry" />
        </mxCell>
        <mxCell id="_EfEo3dYzdyOm2x9ZF3H-5" value="运行时数据区" style="text;html=1;strokeColor=none;fillColor=none;align=center;verticalAlign=middle;whiteSpace=wrap;rounded=0;" vertex="1" parent="1">
          <mxGeometry x="187.75" y="450" width="110" height="20" as="geometry" />
        </mxCell>
        <mxCell id="_EfEo3dYzdyOm2x9ZF3H-6" value="堆区" style="text;html=1;strokeColor=none;fillColor=none;align=center;verticalAlign=middle;whiteSpace=wrap;rounded=0;" vertex="1" parent="1">
          <mxGeometry x="140" y="200" width="40" height="20" as="geometry" />
        </mxCell>
        <mxCell id="_EfEo3dYzdyOm2x9ZF3H-7" value="方法区（元空间）" style="text;html=1;strokeColor=none;fillColor=none;align=center;verticalAlign=middle;whiteSpace=wrap;rounded=0;" vertex="1" parent="1">
          <mxGeometry x="250" y="210" width="140" height="10" as="geometry" />
        </mxCell>
        <mxCell id="_EfEo3dYzdyOm2x9ZF3H-12" style="edgeStyle=orthogonalEdgeStyle;rounded=0;orthogonalLoop=1;jettySize=auto;html=1;exitX=1;exitY=0.5;exitDx=0;exitDy=0;entryX=0;entryY=0.5;entryDx=0;entryDy=0;" edge="1" parent="1" source="_EfEo3dYzdyOm2x9ZF3H-8" target="_EfEo3dYzdyOm2x9ZF3H-10">
          <mxGeometry relative="1" as="geometry" />
        </mxCell>
        <mxCell id="_EfEo3dYzdyOm2x9ZF3H-8" value="class1" style="rounded=1;whiteSpace=wrap;html=1;" vertex="1" parent="1">
          <mxGeometry x="115" y="290" width="90" height="40" as="geometry" />
        </mxCell>
        <mxCell id="_EfEo3dYzdyOm2x9ZF3H-13" style="edgeStyle=orthogonalEdgeStyle;rounded=0;orthogonalLoop=1;jettySize=auto;html=1;exitX=1;exitY=0.5;exitDx=0;exitDy=0;" edge="1" parent="1" source="_EfEo3dYzdyOm2x9ZF3H-9" target="_EfEo3dYzdyOm2x9ZF3H-11">
          <mxGeometry relative="1" as="geometry" />
        </mxCell>
        <mxCell id="_EfEo3dYzdyOm2x9ZF3H-9" value="class2" style="rounded=1;whiteSpace=wrap;html=1;" vertex="1" parent="1">
          <mxGeometry x="115" y="350" width="90" height="40" as="geometry" />
        </mxCell>
        <mxCell id="_EfEo3dYzdyOm2x9ZF3H-10" value="&lt;span&gt;DemoObj.class&lt;/span&gt;&lt;br&gt;&lt;span&gt;的数据结构&lt;/span&gt;" style="rounded=1;whiteSpace=wrap;html=1;" vertex="1" parent="1">
          <mxGeometry x="270" y="285" width="100" height="50" as="geometry" />
        </mxCell>
        <mxCell id="_EfEo3dYzdyOm2x9ZF3H-11" value="&lt;span&gt;DemoObj.class&lt;/span&gt;&lt;br&gt;&lt;span&gt;的数据结构&lt;/span&gt;" style="rounded=1;whiteSpace=wrap;html=1;" vertex="1" parent="1">
          <mxGeometry x="270" y="345" width="100" height="50" as="geometry" />
        </mxCell>
      </root>
    </mxGraphModel>
  </diagram>
</mxfile>
